<svg xmlns="http://www.w3.org/2000/svg" width="1220" height="1290" viewBox="0 0 1220 1290">
<style>
text { font-family: Arial, sans-serif; fill: #1f2933; }
.edge-label { font-size: 12px; fill: #374151; }
.title { font-size: 24px; font-weight: bold; }
.subtitle { font-size: 14px; fill: #4b5563; }
</style>
<rect width="100%" height="100%" fill="#f8fafc" />
<text x="40" y="50" class="title">FashionGraph input photo graph</text>
<text x="40" y="76" class="subtitle">Products, image descriptors, and visual similarity links generated from ./input photos</text>
<line x1="140" y1="120" x2="500" y2="120" stroke="#555555" stroke-width="2" />
<text x="320" y="112" text-anchor="middle" class="edge-label">has photo</text>
<line x1="500" y1="120" x2="980" y2="720" stroke="#5b8e7d" stroke-width="2" />
<text x="740" y="412" text-anchor="middle" class="edge-label">orientation</text>
<line x1="500" y1="120" x2="980" y2="120" stroke="#b56576" stroke-width="2" />
<text x="740" y="112" text-anchor="middle" class="edge-label">brightness</text>
<line x1="500" y1="120" x2="980" y2="570" stroke="#6d597a" stroke-width="2" />
<text x="740" y="337" text-anchor="middle" class="edge-label">contrast</text>
<line x1="500" y1="120" x2="980" y2="420" stroke="#3a86ff" stroke-width="2" />
<text x="740" y="262" text-anchor="middle" class="edge-label">color</text>
<line x1="500" y1="120" x2="980" y2="270" stroke="#3a86ff" stroke-width="2" />
<text x="740" y="187" text-anchor="middle" class="edge-label">color</text>
<line x1="500" y1="120" x2="980" y2="1020" stroke="#ff006e" stroke-width="2" />
<text x="740" y="562" text-anchor="middle" class="edge-label">variant</text>
<line x1="140" y1="120" x2="500" y2="270" stroke="#555555" stroke-width="2" />
<text x="320" y="187" text-anchor="middle" class="edge-label">has photo</text>
<line x1="500" y1="270" x2="980" y2="720" stroke="#5b8e7d" stroke-width="2" />
<text x="740" y="487" text-anchor="middle" class="edge-label">orientation</text>
<line x1="500" y1="270" x2="980" y2="120" stroke="#b56576" stroke-width="2" />
<text x="740" y="187" text-anchor="middle" class="edge-label">brightness</text>
<line x1="500" y1="270" x2="980" y2="570" stroke="#6d597a" stroke-width="2" />
<text x="740" y="412" text-anchor="middle" class="edge-label">contrast</text>
<line x1="500" y1="270" x2="980" y2="420" stroke="#3a86ff" stroke-width="2" />
<text x="740" y="337" text-anchor="middle" class="edge-label">color</text>
<line x1="500" y1="270" x2="980" y2="270" stroke="#3a86ff" stroke-width="2" />
<text x="740" y="262" text-anchor="middle" class="edge-label">color</text>
<line x1="500" y1="270" x2="980" y2="1020" stroke="#ff006e" stroke-width="2" />
<text x="740" y="637" text-anchor="middle" class="edge-label">variant</text>
<line x1="140" y1="120" x2="500" y2="420" stroke="#555555" stroke-width="2" />
<text x="320" y="262" text-anchor="middle" class="edge-label">has photo</text>
<line x1="500" y1="420" x2="980" y2="720" stroke="#5b8e7d" stroke-width="2" />
<text x="740" y="562" text-anchor="middle" class="edge-label">orientation</text>
<line x1="500" y1="420" x2="980" y2="120" stroke="#b56576" stroke-width="2" />
<text x="740" y="262" text-anchor="middle" class="edge-label">brightness</text>
<line x1="500" y1="420" x2="980" y2="570" stroke="#6d597a" stroke-width="2" />
<text x="740" y="487" text-anchor="middle" class="edge-label">contrast</text>
<line x1="500" y1="420" x2="980" y2="420" stroke="#3a86ff" stroke-width="2" />
<text x="740" y="412" text-anchor="middle" class="edge-label">color</text>
<line x1="500" y1="420" x2="980" y2="270" stroke="#3a86ff" stroke-width="2" />
<text x="740" y="337" text-anchor="middle" class="edge-label">color</text>
<line x1="500" y1="420" x2="980" y2="1170" stroke="#ff006e" stroke-width="2" />
<text x="740" y="787" text-anchor="middle" class="edge-label">variant</text>
<line x1="140" y1="120" x2="500" y2="570" stroke="#555555" stroke-width="2" />
<text x="320" y="337" text-anchor="middle" class="edge-label">has photo</text>
<line x1="500" y1="570" x2="980" y2="720" stroke="#5b8e7d" stroke-width="2" />
<text x="740" y="637" text-anchor="middle" class="edge-label">orientation</text>
<line x1="500" y1="570" x2="980" y2="120" stroke="#b56576" stroke-width="2" />
<text x="740" y="337" text-anchor="middle" class="edge-label">brightness</text>
<line x1="500" y1="570" x2="980" y2="570" stroke="#6d597a" stroke-width="2" />
<text x="740" y="562" text-anchor="middle" class="edge-label">contrast</text>
<line x1="500" y1="570" x2="980" y2="420" stroke="#3a86ff" stroke-width="2" />
<text x="740" y="487" text-anchor="middle" class="edge-label">color</text>
<line x1="500" y1="570" x2="980" y2="270" stroke="#3a86ff" stroke-width="2" />
<text x="740" y="412" text-anchor="middle" class="edge-label">color</text>
<line x1="500" y1="570" x2="980" y2="870" stroke="#ff006e" stroke-width="2" />
<text x="740" y="712" text-anchor="middle" class="edge-label">variant</text>
<line x1="500" y1="120" x2="500" y2="270" stroke="#fb8500" stroke-width="2" stroke-dasharray="8 6" />
<text x="500" y="187" text-anchor="middle" class="edge-label">similar (2)</text>
<line x1="500" y1="120" x2="500" y2="420" stroke="#fb8500" stroke-width="2" stroke-dasharray="8 6" />
<text x="500" y="262" text-anchor="middle" class="edge-label">similar (4)</text>
<line x1="500" y1="270" x2="500" y2="420" stroke="#fb8500" stroke-width="2" stroke-dasharray="8 6" />
<text x="500" y="337" text-anchor="middle" class="edge-label">similar (2)</text>
<rect x="50.0" y="88.0" width="180" height="64" rx="18" fill="#ffd166" stroke="#1f2933" stroke-width="2" />
<text x="140" y="108" text-anchor="middle" font-size="14">OM-COWC-0131</text>
<text x="140" y="130" text-anchor="middle" font-size="14">4 photo(s)</text>
<rect x="380.0" y="74.0" width="240" height="92" rx="18" fill="#8ecae6" stroke="#1f2933" stroke-width="2" />
<text x="500" y="84" text-anchor="middle" font-size="14">ERR-OM-COWC-0131-1.jpg</text>
<text x="500" y="106" text-anchor="middle" font-size="14">error_sample · portrait</text>
<text x="500" y="128" text-anchor="middle" font-size="14">bright · moderate</text>
<text x="500" y="150" text-anchor="middle" font-size="14">white, beige</text>
<rect x="380.0" y="224.0" width="240" height="92" rx="18" fill="#8ecae6" stroke="#1f2933" stroke-width="2" />
<text x="500" y="234" text-anchor="middle" font-size="14">ERR-OM-COWC-0131-5.jpg</text>
<text x="500" y="256" text-anchor="middle" font-size="14">error_sample · portrait</text>
<text x="500" y="278" text-anchor="middle" font-size="14">bright · moderate</text>
<text x="500" y="300" text-anchor="middle" font-size="14">white, beige</text>
<rect x="380.0" y="374.0" width="240" height="92" rx="18" fill="#8ecae6" stroke="#1f2933" stroke-width="2" />
<text x="500" y="384" text-anchor="middle" font-size="14">GOOD-OM-COWC-0131.jpg</text>
<text x="500" y="406" text-anchor="middle" font-size="14">good · portrait</text>
<text x="500" y="428" text-anchor="middle" font-size="14">bright · moderate</text>
<text x="500" y="450" text-anchor="middle" font-size="14">white, beige</text>
<rect x="380.0" y="524.0" width="240" height="92" rx="18" fill="#8ecae6" stroke="#1f2933" stroke-width="2" />
<text x="500" y="534" text-anchor="middle" font-size="14">OM-COWC-0131-129402_11.jpg</text>
<text x="500" y="556" text-anchor="middle" font-size="14">129402_11 · portrait</text>
<text x="500" y="578" text-anchor="middle" font-size="14">bright · moderate</text>
<text x="500" y="600" text-anchor="middle" font-size="14">white, beige</text>
<rect x="890.0" y="88.0" width="180" height="64" rx="18" fill="#d9ed92" stroke="#1f2933" stroke-width="2" />
<text x="980" y="108" text-anchor="middle" font-size="14">brightness</text>
<text x="980" y="130" text-anchor="middle" font-size="14">bright</text>
<rect x="890.0" y="238.0" width="180" height="64" rx="18" fill="#d9ed92" stroke="#1f2933" stroke-width="2" />
<text x="980" y="258" text-anchor="middle" font-size="14">color</text>
<text x="980" y="280" text-anchor="middle" font-size="14">beige</text>
<rect x="890.0" y="388.0" width="180" height="64" rx="18" fill="#d9ed92" stroke="#1f2933" stroke-width="2" />
<text x="980" y="408" text-anchor="middle" font-size="14">color</text>
<text x="980" y="430" text-anchor="middle" font-size="14">white</text>
<rect x="890.0" y="538.0" width="180" height="64" rx="18" fill="#d9ed92" stroke="#1f2933" stroke-width="2" />
<text x="980" y="558" text-anchor="middle" font-size="14">contrast</text>
<text x="980" y="580" text-anchor="middle" font-size="14">moderate</text>
<rect x="890.0" y="688.0" width="180" height="64" rx="18" fill="#d9ed92" stroke="#1f2933" stroke-width="2" />
<text x="980" y="708" text-anchor="middle" font-size="14">orientation</text>
<text x="980" y="730" text-anchor="middle" font-size="14">portrait</text>
<rect x="890.0" y="838.0" width="180" height="64" rx="18" fill="#d9ed92" stroke="#1f2933" stroke-width="2" />
<text x="980" y="858" text-anchor="middle" font-size="14">variant</text>
<text x="980" y="880" text-anchor="middle" font-size="14">129402 11</text>
<rect x="890.0" y="988.0" width="180" height="64" rx="18" fill="#d9ed92" stroke="#1f2933" stroke-width="2" />
<text x="980" y="1008" text-anchor="middle" font-size="14">variant</text>
<text x="980" y="1030" text-anchor="middle" font-size="14">error sample</text>
<rect x="890.0" y="1138.0" width="180" height="64" rx="18" fill="#d9ed92" stroke="#1f2933" stroke-width="2" />
<text x="980" y="1158" text-anchor="middle" font-size="14">variant</text>
<text x="980" y="1180" text-anchor="middle" font-size="14">good</text>
</svg>